# xmcd
#
# Track frame offsets:
#	150
#	14173
#	26629
#	39973
#	52732
#	65849
#	74745
#	89085
#	100196
#	116622
#	127817
#	142794
#	156720
#	172704
#	183077
#	193715
#	207780
#	219630
#	229989
#	243117
#
# Disc length: 3411 seconds
#
# Revision: 1
# Processed by: cddbd v1.5.1PL0 Copyright (c) Steve Scherf et al.
# Submitted via: CDex 1.50Beta5
#
DISCID=1c0d5114
DTITLE=渡辺岳夫 - 渡辺岳夫 テレビ映画テレビアニメ主題歌作品集 [CD1]
DYEAR=1900
DGENRE=Anime
TTITLE0=アンサンブル・ボッカ/行け行け飛雄馬
TTITLE1=ジ・エコーズ/友情の虹
TTITLE2=大杉久美子/アタックNo.1
TTITLE3=伊集加代子/バン・ボ・ボン
TTITLE4=堀江美都子/魔法のマコちゃん
TTITLE5=堀江美都子,コロムビア・メール・ハーモニー/ボクはマコについてゆく
TTITLE6=堀江美都子/プールに賭けた青春
TTITLE7=堀江美都子/恋をした渚
TTITLE8=堀江美都子/かぐや姫先生のうた
TTITLE9=堀江美都子/月光(つきひかる)の子守唄
TTITLE10=水木一郎/原始少年リュウが行く
TTITLE11=堀江美都子/ランのうた
TTITLE12=バーブ佐竹,コロムビアゆりかご会/ててご橋
TTITLE13=コロムビアゆりかご会/おねやれ大五郎
TTITLE14=前川陽子/キューティーハニー
TTITLE15=前川陽子/夜霧のハニー
TTITLE16=伊集加代子,ネリー・シュワルツ/おしえて
TTITLE17=大杉久美子,ネリー・シュワルツ/まっててごらん
TTITLE18=前川陽子/魔女っ子メグちゃん
TTITLE19=前川陽子/ひとりぼっちのメグ
EXTD=
EXTT0=
EXTT1=
EXTT2=
EXTT3=
EXTT4=
EXTT5=
EXTT6=
EXTT7=
EXTT8=
EXTT9=
EXTT10=
EXTT11=
EXTT12=
EXTT13=
EXTT14=
EXTT15=
EXTT16=
EXTT17=
EXTT18=
EXTT19=
PLAYORDER=
